<svg xmlns="http://www.w3.org/2000/svg" width="32" height="32" viewBox="0 0 32 32">
  <defs>
    <style>
      .cls-1 {
        fill: #1da1f2;
      }

      .cls-2 {
        fill: #fff;
      }
    </style>
  </defs>
  <g id="tweet" transform="translate(-509 -7296)">
    <rect id="Rectangle_45" data-name="Rectangle 45" class="cls-1" width="32" height="32" rx="3" transform="translate(509 7296)"/>
    <path id="twitter" class="cls-2" d="M11.977,3.407a5,5,0,0,1-1.412.387,2.479,2.479,0,0,0,1.081-1.361,5.081,5.081,0,0,1-1.563.592A2.459,2.459,0,0,0,5.827,4.7a2.517,2.517,0,0,0,.063.562A6.967,6.967,0,0,1,.82,2.7,2.411,2.411,0,0,0,.487,3.941,2.46,2.46,0,0,0,1.581,5.989,2.452,2.452,0,0,1,.467,5.681v.03A2.461,2.461,0,0,0,2.44,8.125a2.483,2.483,0,0,1-1.106.042,2.468,2.468,0,0,0,2.3,1.708A4.934,4.934,0,0,1,.585,10.928,5.222,5.222,0,0,1,0,10.895,7,7,0,0,0,3.778,12a6.948,6.948,0,0,0,7-6.993c0-.1,0-.21-.007-.315A4.968,4.968,0,0,0,12,3.417l-.023-.01Z" transform="translate(519 7304.754)"/>
  </g>
</svg>
