<svg xmlns="http://www.w3.org/2000/svg" width="32" height="32" viewBox="0 0 32 32">
  <defs>
    <style>
      .cls-1 {
        fill: #0077b5;
      }

      .cls-2 {
        fill: #fff;
      }
    </style>
  </defs>
  <g id="linked" transform="translate(-549 -7296)">
    <rect id="Rectangle_78" data-name="Rectangle 78" class="cls-1" width="32" height="32" rx="3" transform="translate(549 7296)"/>
    <g id="XMLID_801_" transform="translate(558 7304.659)">
      <path id="Union_1" data-name="Union 1" class="cls-2" d="M-4485.579-973.66a.2.2,0,0,1-.194-.194v-3.77c0-1.056-.078-1.864-1.06-1.864-.9,0-1.252.5-1.252,1.8v3.837a.194.194,0,0,1-.194.194h-2.409a.194.194,0,0,1-.2-.194v-7.756a.194.194,0,0,1,.2-.194h2.312a.194.194,0,0,1,.194.194v.5a2.835,2.835,0,0,1,2.121-.891c2.72,0,3.086,1.966,3.086,3.889v4.254a.194.194,0,0,1-.194.194Zm-9.036,0a.194.194,0,0,1-.194-.193v-7.757a.194.194,0,0,1,.194-.194h2.415a.194.194,0,0,1,.194.194v7.757a.194.194,0,0,1-.194.193Zm-.386-10.408a1.6,1.6,0,0,1,1.594-1.592,1.594,1.594,0,0,1,1.592,1.592,1.594,1.594,0,0,1-1.592,1.592A1.6,1.6,0,0,1-4495-984.068Z" transform="translate(4496 987)"/>
    </g>
  </g>
</svg>
